<svg xmlns="http://www.w3.org/2000/svg" viewBox="0 0 1000 1000" role="img">
<rect width="1000" height="1000" fill="#dce9e4"/>

<rect y="630" width="1000" height="370" fill="#90ad8f"/>
<circle cx="790" cy="170" r="95" fill="#f4c75f"/>
<path d="M0 620 175 380l165 240 188-310 215 310 130-180 127 180v140H0z" fill="#587c67"/>
<g>
<rect x="85" y="550" width="190" height="230" fill="#f8f4e9"/><path d="m55 575 125-105 125 105z" fill="#e97035"/>
<rect x="355" y="510" width="235" height="270" fill="#f0d7af"/><path d="m320 535 153-128 153 128z" fill="#0d4b3f"/>
<rect x="690" y="570" width="180" height="210" fill="#f8f4e9"/><path d="m660 590 120-100 120 100z" fill="#c8945e"/>
</g>
<path d="M0 820c180-110 340-130 500-45 160 83 320 88 500-20v245H0z" fill="#d7cfb5"/>
<path d="M420 750c55 70 70 153 45 250" fill="none" stroke="#fff" stroke-width="42" opacity=".8"/>

</svg>