<svg xmlns="http://www.w3.org/2000/svg" viewBox="0 0 1600 260">
<g fill="#0d4b3f">
<path d="M0 260V184l46-39 34 29 42-80 51 76 28-41 47 55v76z"/>
<path d="M185 260v-66l51-50 37 35 52-118 54 110 38-52 54 75v66z"/>
<path d="M430 260v-88l49-37 37 25 58-121 62 127 43-65 63 71v88z"/>
<path d="M690 260v-64l45-39 31 29 44-90 49 83 36-48 55 65v64z"/>
<path d="M930 260v-80l46-43 35 27 55-124 63 129 43-61 60 72v80z"/>
<path d="M1190 260v-67l49-39 35 24 45-92 50 96 38-57 57 68v67z"/>
<path d="M1410 260v-76l42-35 33 25 48-100 53 109 35-47 48 48v76z"/>
</g></svg>